<?xml version="1.0" encoding="UTF-8"?>
<!DOCTYPE svg PUBLIC "-//W3C//DTD SVG 1.1//EN" "http://www.w3.org/Graphics/SVG/1.1/DTD/svg11.dtd">
<svg xmlns="http://www.w3.org/2000/svg" version="1.1" width="3586px" height="806px" style="shape-rendering:geometricPrecision; text-rendering:geometricPrecision; image-rendering:optimizeQuality; fill-rule:evenodd; clip-rule:evenodd" xmlns:xlink="http://www.w3.org/1999/xlink">
<g><path style="opacity:0.995" fill="#fefffe" d="M 3444.5,-0.5 C 3451.5,-0.5 3458.5,-0.5 3465.5,-0.5C 3465.5,45.1667 3465.5,90.8333 3465.5,136.5C 3499.17,136.5 3532.83,136.5 3566.5,136.5C 3571.81,169.832 3571.81,203.165 3566.5,236.5C 3532.83,236.5 3499.17,236.5 3465.5,236.5C 3465.33,302.834 3465.5,369.168 3466,435.5C 3466.18,451.727 3469.18,467.394 3475,482.5C 3483.23,500.712 3497.4,510.212 3517.5,511C 3524.83,511.667 3532.17,511.667 3539.5,511C 3551.5,509.1 3563.5,507.267 3575.5,505.5C 3580.36,522.667 3583.69,540 3585.5,557.5C 3585.5,570.833 3585.5,584.167 3585.5,597.5C 3585.04,600.49 3584.04,603.323 3582.5,606C 3541.9,616.184 3500.9,618.184 3459.5,612C 3397.9,599.736 3362.07,562.569 3352,500.5C 3350.63,492.211 3349.63,483.878 3349,475.5C 3348.32,395.834 3347.82,316.167 3347.5,236.5C 3329.5,236.5 3311.5,236.5 3293.5,236.5C 3291.87,229.866 3290.71,223.199 3290,216.5C 3341.72,144.288 3393.22,71.9543 3444.5,-0.5 Z"/></g>
<g><path style="opacity:0.994" fill="#fefffe" d="M 558.5,805.5 C 502.833,805.5 447.167,805.5 391.5,805.5C 359.016,803.009 342.682,785.342 342.5,752.5C 344.04,731.633 348.207,711.3 355,691.5C 386.34,595.648 417.173,499.648 447.5,403.5C 415.638,303.747 383.471,204.08 351,104.5C 344.743,85.298 342.077,65.6314 343,45.5C 346.535,18.4507 362.035,4.284 389.5,3C 452.833,2.33333 516.167,2.33333 579.5,3C 607.553,3.23836 635.22,6.57169 662.5,13C 690.721,20.5652 711.887,37.0652 726,62.5C 734.377,78.2531 741.377,94.5864 747,111.5C 764.933,171.232 781.933,231.232 798,291.5C 808.965,328.729 820.132,365.896 831.5,403C 804.035,493.027 778.201,583.527 754,674.5C 748.455,692.471 742.121,710.138 735,727.5C 717.742,769.414 686.576,793.247 641.5,799C 613.8,802.708 586.133,804.875 558.5,805.5 Z M 543.5,97.5 C 567.868,97.0711 592.201,97.5711 616.5,99C 626.185,101.255 633.351,106.755 638,115.5C 669.629,211.056 700.463,306.889 730.5,403C 702.203,493.559 673.703,584.059 645,674.5C 642.14,687.067 635.64,697.234 625.5,705C 621.768,707.133 617.768,708.466 613.5,709C 565.833,709.667 518.167,709.667 470.5,709C 464.559,706.986 461.059,702.819 460,696.5C 459.196,690.431 459.529,684.431 461,678.5C 489.866,586.736 519.033,495.069 548.5,403.5C 518.901,311.203 489.401,218.87 460,126.5C 458.644,118.471 459.644,110.805 463,103.5C 464.637,101.19 466.804,99.6898 469.5,99C 494.337,98.8321 519.003,98.3321 543.5,97.5 Z"/></g>
<g><path style="opacity:0.992" fill="#fefffe" d="M -0.5,128.5 C -0.5,125.5 -0.5,122.5 -0.5,119.5C 2.03432,95.1416 15.701,82.6416 40.5,82C 88.1667,81.3333 135.833,81.3333 183.5,82C 209.22,81.8577 234.554,84.8577 259.5,91C 279.346,97.184 294.846,109.017 306,126.5C 316.528,146.232 324.862,166.899 331,188.5C 350.49,260.636 370.99,332.469 392.5,404C 370.836,475.821 350.336,547.987 331,620.5C 324.864,642.584 316.197,663.584 305,683.5C 292.923,701.293 276.423,712.793 255.5,718C 238.736,722.014 221.736,724.347 204.5,725C 149.176,726.543 93.8432,726.876 38.5,726C 16.9495,725.441 4.44952,714.608 1,693.5C -0.0265348,681.006 0.973465,668.673 4,656.5C 30.6012,572.263 57.4346,488.096 84.5,404C 59,325.5 33.5,247 8,168.5C 3.92497,155.283 1.09164,141.95 -0.5,128.5 Z M 103.5,158.5 C 141.501,158.333 179.501,158.5 217.5,159C 227.639,161.136 234.806,166.969 239,176.5C 263.469,252.074 287.636,327.741 311.5,403.5C 288.101,478.197 264.601,552.864 241,627.5C 237.756,637.531 231.256,644.364 221.5,648C 182.205,649.637 142.872,649.97 103.5,649C 98.9291,647.427 96.0957,644.26 95,639.5C 94.2106,633.763 94.5439,628.097 96,622.5C 119.167,549.667 142.333,476.833 165.5,404C 140.567,327.927 116.567,251.594 93.5,175C 93.2138,167.036 96.5471,161.536 103.5,158.5 Z"/></g>
<g><path style="opacity:0.996" fill="#fefffe" d="M 2692.5,126.5 C 2726.1,124.916 2757.43,132.416 2786.5,149C 2810.7,166.534 2827.2,189.701 2836,218.5C 2842.26,240.061 2845.93,262.061 2847,284.5C 2847.18,393.517 2847.68,502.517 2848.5,611.5C 2808.5,618.15 2768.5,618.15 2728.5,611.5C 2728.67,516.833 2728.5,422.166 2728,327.5C 2727.45,309.624 2724.11,292.291 2718,275.5C 2708.75,252.286 2691.59,241.286 2666.5,242.5C 2631.11,242.768 2607.28,259.434 2595,292.5C 2588.97,309.649 2585.64,327.316 2585,345.5C 2584.5,434.166 2584.33,522.833 2584.5,611.5C 2544.83,618.166 2505.16,618.166 2465.5,611.5C 2465.5,453.5 2465.5,295.5 2465.5,137.5C 2497.88,130.686 2530.21,130.853 2562.5,138C 2565.51,144.534 2567.68,151.368 2569,158.5C 2571.77,173.097 2574.1,187.764 2576,202.5C 2602.1,157.548 2640.94,132.215 2692.5,126.5 Z"/></g>
<g><path style="opacity:0.994" fill="#fefffe" d="M 3079.5,126.5 C 3166.11,122.033 3227.94,158.7 3265,236.5C 3280,274.025 3287.5,313.025 3287.5,353.5C 3287.05,373.579 3285.55,393.579 3283,413.5C 3190.9,414.499 3098.74,414.832 3006.5,414.5C 3008.56,468.707 3035.89,501.874 3088.5,514C 3140.05,521.064 3189.89,514.564 3238,494.5C 3250.77,519.221 3258.43,545.554 3261,573.5C 3261.37,579.179 3261.87,584.845 3262.5,590.5C 3262.17,591.833 3261.83,593.167 3261.5,594.5C 3197.57,619.394 3131.57,627.227 3063.5,618C 2977.6,603.102 2923.1,553.602 2900,469.5C 2883.88,404.561 2884.88,339.895 2903,275.5C 2918.74,220.133 2951.24,177.967 3000.5,149C 3025.4,136.028 3051.74,128.528 3079.5,126.5 Z M 3081.5,226.5 C 3121.93,221.832 3149.77,238.165 3165,275.5C 3170.67,290.663 3173.83,306.33 3174.5,322.5C 3118.83,322.5 3063.17,322.5 3007.5,322.5C 3008.84,296.654 3017,273.321 3032,252.5C 3045.44,237.867 3061.94,229.2 3081.5,226.5 Z"/></g>
<g><path style="opacity:0.996" fill="#fefffe" d="M 1199.5,128.5 C 1290.4,123.589 1342.9,165.923 1357,255.5C 1358.44,265.121 1359.44,274.788 1360,284.5C 1360.25,382.502 1360.75,480.502 1361.5,578.5C 1361.17,589.833 1360.83,601.167 1360.5,612.5C 1321.16,620.5 1281.83,620.5 1242.5,612.5C 1241.67,517.502 1241.17,422.502 1241,327.5C 1240.15,309.23 1236.48,291.563 1230,274.5C 1220.25,253.28 1203.58,242.947 1180,243.5C 1144.06,243.794 1120.06,260.794 1108,294.5C 1101.87,311.969 1098.53,329.969 1098,348.5C 1097.5,436.833 1097.33,525.166 1097.5,613.5C 1057.83,620.167 1018.17,620.167 978.5,613.5C 978.5,455.5 978.5,297.5 978.5,139.5C 1004.62,134.306 1030.96,133.139 1057.5,136C 1063.63,136.826 1069.63,138.159 1075.5,140C 1078.32,144.793 1080.15,149.96 1081,155.5C 1084.32,171.391 1086.98,187.391 1089,203.5C 1107.49,172.003 1133.66,149.503 1167.5,136C 1178.05,132.395 1188.71,129.895 1199.5,128.5 Z"/></g>
<g><path style="opacity:0.995" fill="#fefffe" d="M 1587.5,128.5 C 1669.13,121.558 1730.29,153.225 1771,223.5C 1791.1,265.143 1800.93,309.143 1800.5,355.5C 1799.89,375.556 1798.56,395.556 1796.5,415.5C 1704.16,415.21 1611.83,415.544 1519.5,416.5C 1523.8,477.635 1556.47,511.468 1617.5,518C 1662.76,521.058 1706.43,514.058 1748.5,497C 1749.94,496.219 1751.28,496.386 1752.5,497.5C 1767.2,528.517 1774.7,561.184 1775,595.5C 1739.37,610.562 1702.2,619.395 1663.5,622C 1625.38,625.513 1587.71,622.847 1550.5,614C 1481.87,594.036 1437.04,549.87 1416,481.5C 1396.72,413.494 1396.72,345.494 1416,277.5C 1432.2,219.859 1466.36,176.693 1518.5,148C 1540.51,137.584 1563.51,131.084 1587.5,128.5 Z M 1600.5,227.5 C 1632.24,224.997 1656.08,237.331 1672,264.5C 1681.86,283.27 1687.03,303.27 1687.5,324.5C 1631.83,324.5 1576.17,324.5 1520.5,324.5C 1521.88,299.198 1529.71,276.198 1544,255.5C 1558.91,238.295 1577.74,228.961 1600.5,227.5 Z"/></g>
<g><path style="opacity:0.994" fill="#fefffe" d="M 2112.5,132.5 C 2134.29,132.966 2155.96,134.799 2177.5,138C 2178.43,138.388 2179.09,139.055 2179.5,140C 2205.41,252.48 2231.24,364.98 2257,477.5C 2279.79,364.551 2302.46,251.551 2325,138.5C 2364.78,130.658 2404.62,130.658 2444.5,138.5C 2400.64,296.285 2356.3,453.952 2311.5,611.5C 2279.98,616.292 2248.32,617.459 2216.5,615C 2208.13,614.411 2199.96,612.911 2192,610.5C 2166,507.167 2140,403.833 2114,300.5C 2087.18,404.124 2060.51,507.791 2034,611.5C 2017.24,612.326 2000.41,612.826 1983.5,613C 1960.43,617.354 1937.43,616.854 1914.5,611.5C 1870.96,454.218 1827.63,296.885 1784.5,139.5C 1806.9,134.757 1829.57,132.757 1852.5,133.5C 1865.86,133.477 1879.19,133.977 1892.5,135C 1899.42,135.54 1906.09,137.04 1912.5,139.5C 1935.35,254.243 1958.52,368.91 1982,483.5C 2008.33,368.522 2034.49,253.522 2060.5,138.5C 2077.82,135.17 2095.15,133.17 2112.5,132.5 Z"/></g>
</svg>
