<?xml version="1.0" encoding="UTF-8"?>
<!DOCTYPE svg PUBLIC "-//W3C//DTD SVG 1.1//EN" "http://www.w3.org/Graphics/SVG/1.1/DTD/svg11.dtd">
<svg xmlns="http://www.w3.org/2000/svg" version="1.1" width="3635px" height="912px" style="shape-rendering:geometricPrecision; text-rendering:geometricPrecision; image-rendering:optimizeQuality; fill-rule:evenodd; clip-rule:evenodd" xmlns:xlink="http://www.w3.org/1999/xlink">
<g><path style="opacity:0.994" fill="#afc500" d="M 389.5,-0.5 C 452.833,-0.5 516.167,-0.5 579.5,-0.5C 599.42,0.521175 619.42,2.35451 639.5,5C 663.893,7.7879 685.56,16.7879 704.5,32C 718.14,45.6608 728.64,61.4941 736,79.5C 741.06,92.0128 745.727,104.679 750,117.5C 766.467,174.367 782.467,231.367 798,288.5C 809.072,325.882 820.239,363.215 831.5,400.5C 797.833,400.5 764.167,400.5 730.5,400.5C 700.569,304.208 669.736,208.208 638,112.5C 632.991,104.239 625.824,98.7393 616.5,96C 603.201,94.9043 589.868,94.4043 576.5,94.5C 540.834,95.036 505.167,95.536 469.5,96C 464.191,97.9828 461.024,101.816 460,107.5C 459.333,112.833 459.333,118.167 460,123.5C 489.401,215.87 518.901,308.203 548.5,400.5C 548.376,401.107 548.043,401.44 547.5,401.5C 514.265,401.369 480.932,401.036 447.5,400.5C 415.975,301.759 384.142,203.092 352,104.5C 345.09,84.3781 342.09,63.7114 343,42.5C 346.771,15.5245 362.271,1.19114 389.5,-0.5 Z"/></g>
<g><path style="opacity:0.995" fill="#afc600" d="M 3444.5,43.5 C 3451.5,43.5 3458.5,43.5 3465.5,43.5C 3465.5,89.5 3465.5,135.5 3465.5,181.5C 3499.17,181.5 3532.83,181.5 3566.5,181.5C 3571.79,214.496 3571.79,247.496 3566.5,280.5C 3532.83,280.5 3499.17,280.5 3465.5,280.5C 3465.33,346.834 3465.5,413.168 3466,479.5C 3465.81,500.247 3470.81,519.581 3481,537.5C 3489.96,548.233 3501.46,554.066 3515.5,555C 3524.17,555.667 3532.83,555.667 3541.5,555C 3552.83,553.1 3564.16,551.267 3575.5,549.5C 3585.22,582.483 3587.88,615.983 3583.5,650C 3542.24,660.223 3500.57,662.223 3458.5,656C 3401.21,645.133 3366.37,611.3 3354,554.5C 3352.23,546.572 3350.9,538.572 3350,530.5C 3348.37,447.186 3347.54,363.852 3347.5,280.5C 3329.5,280.967 3311.5,281.3 3293.5,281.5C 3292.49,275.276 3291.16,269.11 3289.5,263C 3340.8,189.558 3392.47,116.391 3444.5,43.5 Z"/></g>
<g><path style="opacity:0.993" fill="#0056a2" d="M 392.5,400.5 C 365.5,400.5 338.5,400.5 311.5,400.5C 287.371,323.279 262.538,246.279 237,169.5C 232.68,161.846 226.18,157.346 217.5,156C 179.5,155.333 141.5,155.333 103.5,156C 100.966,156.516 98.7998,157.683 97,159.5C 94.8224,163.376 93.6558,167.543 93.5,172C 116.496,248.486 140.496,324.652 165.5,400.5C 138.5,400.5 111.5,400.5 84.5,400.5C 58.9107,322.231 33.4107,243.898 8,165.5C 3.92497,152.283 1.09164,138.95 -0.5,125.5C -0.5,122.5 -0.5,119.5 -0.5,116.5C 2.03432,92.1416 15.701,79.6416 40.5,79C 88.1667,78.3333 135.833,78.3333 183.5,79C 209.22,78.8577 234.554,81.8577 259.5,88C 279.346,94.184 294.846,106.017 306,123.5C 316.528,143.232 324.862,163.899 331,185.5C 350.392,257.507 370.892,329.173 392.5,400.5 Z"/></g>
<g><path style="opacity:0.994" fill="#afc600" d="M 3082.5,170.5 C 3180.82,169.062 3244.99,215.062 3275,308.5C 3287.73,357.611 3290.39,407.277 3283,457.5C 3190.9,458.499 3098.74,458.832 3006.5,458.5C 3009.51,518.013 3040.51,551.847 3099.5,560C 3147.57,564.1 3193.9,556.934 3238.5,538.5C 3254.05,570.042 3261.72,603.376 3261.5,638.5C 3227.86,652.493 3192.86,660.993 3156.5,664C 3123.04,666.768 3089.7,665.768 3056.5,661C 2975.65,644.509 2923.81,596.675 2901,517.5C 2883.04,448.007 2884.71,379.007 2906,310.5C 2924.82,252.348 2961.99,210.515 3017.5,185C 3038.6,177.016 3060.27,172.183 3082.5,170.5 Z M 3082.5,270.5 C 3122.34,266.487 3149.84,282.821 3165,319.5C 3170.67,334.664 3173.83,350.331 3174.5,366.5C 3118.84,367.336 3063.17,367.669 3007.5,367.5C 3008.62,341.315 3016.78,317.648 3032,296.5C 3045.67,281.583 3062.5,272.917 3082.5,270.5 Z"/></g>
<g><path style="opacity:0.996" fill="#afc600" d="M 2682.5,171.5 C 2783.88,166.124 2838.38,214.124 2846,315.5C 2847.14,428.722 2847.97,541.888 2848.5,655C 2808.53,662.151 2768.53,662.318 2728.5,655.5C 2728.67,560.833 2728.5,466.166 2728,371.5C 2727.44,349.717 2722.44,329.05 2713,309.5C 2702.11,293.295 2686.78,285.628 2667,286.5C 2637.41,285.621 2615.41,297.954 2601,323.5C 2590.84,344.295 2585.51,366.295 2585,389.5C 2584.83,478.169 2584.33,566.835 2583.5,655.5C 2544.5,663.5 2505.5,663.5 2466.5,655.5C 2465.33,497.834 2465.17,340.168 2466,182.5C 2498.07,174.712 2530.24,174.546 2562.5,182C 2565.13,187.21 2566.96,192.71 2568,198.5C 2571.32,214.392 2573.98,230.392 2576,246.5C 2600.08,205.247 2635.58,180.247 2682.5,171.5 Z"/></g>
<g><path style="opacity:0.996" fill="#0056a2" d="M 1202.5,172.5 C 1291.86,169.042 1343.36,211.375 1357,299.5C 1358.29,309.137 1359.29,318.803 1360,328.5C 1360.51,437.835 1360.84,547.169 1361,656.5C 1321.33,664.479 1281.66,664.479 1242,656.5C 1241.67,561.833 1241.33,467.167 1241,372.5C 1240.28,356.824 1237.61,341.491 1233,326.5C 1224.88,301.009 1207.38,288.009 1180.5,287.5C 1144.51,287.895 1120.35,304.895 1108,338.5C 1101.87,355.97 1098.53,373.97 1098,392.5C 1097.5,480.833 1097.33,569.166 1097.5,657.5C 1057.83,664.167 1018.17,664.167 978.5,657.5C 978.5,499.5 978.5,341.5 978.5,183.5C 1010.88,176.682 1043.22,176.849 1075.5,184C 1078.02,188.891 1079.85,194.058 1081,199.5C 1084.42,215.709 1087.09,232.043 1089,248.5C 1114.43,204.543 1152.26,179.209 1202.5,172.5 Z"/></g>
<g><path style="opacity:0.994" fill="#0056a2" d="M 1590.5,172.5 C 1681.49,167.41 1744.99,206.41 1781,289.5C 1794.08,324.973 1800.58,361.639 1800.5,399.5C 1799.95,419.56 1798.61,439.56 1796.5,459.5C 1704.17,460.229 1611.84,460.563 1519.5,460.5C 1523.56,520.727 1555.56,554.561 1615.5,562C 1662.31,565.392 1707.48,558.226 1751,540.5C 1755.11,547.047 1758.44,554.047 1761,561.5C 1770.01,587.064 1774.85,613.398 1775.5,640.5C 1701.92,668.807 1626.59,674.64 1549.5,658C 1480.27,637.104 1435.44,591.938 1415,522.5C 1396.72,455.401 1397.06,388.401 1416,321.5C 1431.6,267.039 1463.44,225.205 1511.5,196C 1536.34,182.713 1562.67,174.879 1590.5,172.5 Z M 1604.5,271.5 C 1641.55,271.392 1666.38,288.725 1679,323.5C 1683.95,338.099 1686.79,353.099 1687.5,368.5C 1631.83,368.5 1576.17,368.5 1520.5,368.5C 1521.88,343.198 1529.71,320.198 1544,299.5C 1560.06,281.206 1580.23,271.872 1604.5,271.5 Z"/></g>
<g><path style="opacity:0.994" fill="#0056a2" d="M 2370.5,176.5 C 2395.37,176.206 2420.04,178.206 2444.5,182.5C 2400.78,340.367 2356.28,498.033 2311,655.5C 2271.19,662.104 2231.36,662.104 2191.5,655.5C 2165.99,552.108 2140.15,448.774 2114,345.5C 2087.02,448.736 2060.36,552.07 2034,655.5C 2026.66,657.407 2019.16,658.573 2011.5,659C 1985.83,660.96 1960.16,660.96 1934.5,659C 1927.76,658.155 1921.09,656.988 1914.5,655.5C 1870.85,498.248 1827.52,340.915 1784.5,183.5C 1819.94,177.407 1855.6,175.907 1891.5,179C 1898.72,179.647 1905.72,181.147 1912.5,183.5C 1935.48,298.551 1958.64,413.551 1982,528.5C 2008.17,413.153 2034.34,297.819 2060.5,182.5C 2100.16,175.957 2139.83,175.957 2179.5,182.5C 2205.14,295.528 2230.97,408.528 2257,521.5C 2279.69,409.231 2302.19,296.898 2324.5,184.5C 2324.82,183.353 2325.48,182.519 2326.5,182C 2341.22,179.327 2355.88,177.494 2370.5,176.5 Z"/></g>
<g><path style="opacity:0.992" fill="#003872" d="M 84.5,400.5 C 111.5,400.5 138.5,400.5 165.5,400.5C 142.44,473.513 119.274,546.513 96,619.5C 93.7305,626.984 94.0638,634.317 97,641.5C 98.6374,643.81 100.804,645.31 103.5,646C 141.167,646.667 178.833,646.667 216.5,646C 226.118,644.702 233.285,639.868 238,631.5C 263.003,554.658 287.503,477.658 311.5,400.5C 338.5,400.5 365.5,400.5 392.5,400.5C 370.917,472.495 350.417,544.828 331,617.5C 324.444,642.603 314.11,665.937 300,687.5C 286.147,703.68 268.647,713.513 247.5,717C 233.283,719.655 218.949,721.322 204.5,722C 149.176,723.543 93.8432,723.876 38.5,723C 16.9495,722.441 4.44952,711.608 1,690.5C -0.110441,672.718 2.22289,655.385 8,638.5C 33.607,559.18 59.107,479.846 84.5,400.5 Z"/></g>
<g><path style="opacity:0.994" fill="#7c9014" d="M 447.5,400.5 C 480.932,401.036 514.265,401.369 547.5,401.5C 518.337,494.147 489.17,586.814 460,679.5C 458.326,688.027 459.826,695.86 464.5,703C 466.275,704.439 468.275,705.439 470.5,706C 518.167,706.667 565.833,706.667 613.5,706C 622.736,704.438 630.236,699.938 636,692.5C 639.809,685.879 642.809,678.879 645,671.5C 673.607,581.18 702.107,490.846 730.5,400.5C 764.167,400.5 797.833,400.5 831.5,400.5C 803.961,490.321 778.127,580.655 754,671.5C 747.352,695.447 738.352,718.447 727,740.5C 708.079,773.366 679.579,791.866 641.5,796C 624.594,798.603 607.594,800.27 590.5,801C 524.175,802.539 457.841,802.872 391.5,802C 358.834,799.832 342.501,782.332 342.5,749.5C 343.594,733.197 346.427,717.197 351,701.5C 383.476,601.241 415.642,500.907 447.5,400.5 Z"/></g>
<g><path style="opacity:0.974" fill="#868786" d="M 3058.5,734.5 C 3085.5,734.5 3112.5,734.5 3139.5,734.5C 3139.5,742.833 3139.5,751.167 3139.5,759.5C 3123.17,759.5 3106.83,759.5 3090.5,759.5C 3090.5,768.833 3090.5,778.167 3090.5,787.5C 3104.83,787.5 3119.17,787.5 3133.5,787.5C 3133.5,795.5 3133.5,803.5 3133.5,811.5C 3119.17,811.5 3104.83,811.5 3090.5,811.5C 3090.5,829.833 3090.5,848.167 3090.5,866.5C 3079.83,866.5 3069.17,866.5 3058.5,866.5C 3058.5,822.5 3058.5,778.5 3058.5,734.5 Z"/></g>
<g><path style="opacity:0.977" fill="#868786" d="M 3164.5,734.5 C 3175.17,734.5 3185.83,734.5 3196.5,734.5C 3196.5,778.5 3196.5,822.5 3196.5,866.5C 3185.83,866.5 3175.17,866.5 3164.5,866.5C 3164.5,822.5 3164.5,778.5 3164.5,734.5 Z"/></g>
<g><path style="opacity:0.98" fill="#868786" d="M 3230.5,734.5 C 3250.17,734.333 3269.84,734.5 3289.5,735C 3314.61,735.779 3327.11,748.613 3327,773.5C 3325.77,785.486 3319.6,793.653 3308.5,798C 3325.47,801.312 3334.14,811.645 3334.5,829C 3333.63,845.406 3325.63,856.739 3310.5,863C 3304.31,864.836 3297.98,865.836 3291.5,866C 3271.17,866.5 3250.84,866.667 3230.5,866.5C 3230.5,822.5 3230.5,778.5 3230.5,734.5 Z M 3262.5,758.5 C 3270.59,758.099 3278.59,758.599 3286.5,760C 3295.06,764.713 3297.22,771.547 3293,780.5C 3290.59,782.956 3287.76,784.789 3284.5,786C 3277.22,787.247 3269.89,787.747 3262.5,787.5C 3262.5,777.833 3262.5,768.167 3262.5,758.5 Z M 3262.5,810.5 C 3270.17,810.334 3277.84,810.5 3285.5,811C 3299.91,812.997 3304.74,820.83 3300,834.5C 3297.24,838.534 3293.41,840.701 3288.5,841C 3279.84,841.5 3271.17,841.666 3262.5,841.5C 3262.5,831.167 3262.5,820.833 3262.5,810.5 Z"/></g>
<g><path style="opacity:0.976" fill="#868786" d="M 3362.5,734.5 C 3382.84,734.333 3403.17,734.5 3423.5,735C 3450.1,737.359 3462.27,751.859 3460,778.5C 3457.04,790.132 3449.87,797.966 3438.5,802C 3442.13,804.425 3444.97,807.592 3447,811.5C 3455.73,829.63 3463.9,847.963 3471.5,866.5C 3460.17,866.5 3448.83,866.5 3437.5,866.5C 3431.43,850.358 3424.26,834.691 3416,819.5C 3413.81,816.819 3410.97,815.319 3407.5,815C 3403.18,814.501 3398.85,814.334 3394.5,814.5C 3394.5,831.833 3394.5,849.167 3394.5,866.5C 3383.83,866.5 3373.17,866.5 3362.5,866.5C 3362.5,822.5 3362.5,778.5 3362.5,734.5 Z M 3394.5,759.5 C 3402.9,759.13 3411.24,759.63 3419.5,761C 3428.84,766.251 3431.01,773.751 3426,783.5C 3421.69,787.607 3416.52,789.774 3410.5,790C 3405.18,790.499 3399.84,790.666 3394.5,790.5C 3394.5,780.167 3394.5,769.833 3394.5,759.5 Z"/></g>
<g><path style="opacity:0.983" fill="#868786" d="M 3533.5,734.5 C 3545.52,734.168 3557.52,734.501 3569.5,735.5C 3586.7,778.738 3604.04,821.905 3621.5,865C 3609.84,865.5 3598.17,865.667 3586.5,865.5C 3583.67,855.83 3580.33,846.33 3576.5,837C 3559.5,836.333 3542.5,836.333 3525.5,837C 3522.03,846.412 3518.36,855.746 3514.5,865C 3503.82,865.832 3493.15,865.666 3482.5,864.5C 3499.51,821.145 3516.51,777.812 3533.5,734.5 Z M 3550.5,763.5 C 3556.43,779.603 3562.43,795.936 3568.5,812.5C 3556.85,813.666 3545.18,813.833 3533.5,813C 3538.72,800.674 3543.55,788.174 3548,775.5C 3549.47,771.622 3550.3,767.622 3550.5,763.5 Z"/></g>
</svg>
